<svg xmlns="http://www.w3.org/2000/svg" version="1.1" xmlns:xlink="http://www.w3.org/1999/xlink" xmlns:svgjs="http://svgjs.dev/svgjs" viewBox="0 0 14.681528676929958 3.48866621719139"><g transform="matrix(0.6973358840133117,0,0,0.6973358840133117,4.369272300107241,1.4066423872669458)"><g clip-path="url(#SvgjsClipPath3692)"><g clip-path="url(#SvgjsClipPath369036c2ed8a-6dd8-468a-9912-5c00bf11906a)"><path d=" M -1.361233309347944 1.356793420609197 C -0.8649814810846881 1.3567934206091974 -0.46268988873874717 0.954501828263256 -0.46268988873874717 0.45825000000000005 C -0.46268988873874717 -0.03800182826325571 -0.8649814810846881 -0.4402934206091971 -1.361233309347944 -0.4402934206091971 C -1.8574851376111998 -0.4402934206091971 -2.2597767299571414 -0.03800182826325582 -2.2597767299571414 0.45824999999999994 C -2.2597767299571414 0.954501828263256 -1.8574851376111998 1.3567934206091974 -1.361233309347944 1.3567934206091974 Z M -1.361233309347944 1.419483309347944 C -0.8303588115656892 1.419483309347944 -0.40000000000000013 0.9891244977822549 -0.40000000000000013 0.45824999999999994 C -0.40000000000000013 -0.07262449778225494 -0.8303588115656892 -0.5029833093479441 -1.361233309347944 -0.5029833093479441 C -1.8921078071301989 -0.5029833093479441 -2.322466618695888 -0.072624497782255 -2.322466618695888 0.4582499999999997 C -2.322466618695888 0.9891244977822549 -1.8921078071301989 1.419483309347944 -1.361233309347944 1.419483309347944 Z" fill="#4e888f" transform="matrix(1,0,0,1,0,0)" fill-rule="evenodd"></path></g><g clip-path="url(#SvgjsClipPath369036c2ed8a-6dd8-468a-9912-5c00bf11906a)"><path d=" M -1.1313762096289595 1.391834743977245 C -1.2115257730970124 1.3721511869661545 -1.2887877423702878 1.3421675273576688 -1.3612333093479436 1.302632292869756 C -1.4336797072448468 1.342149035476719 -1.510942302961636 1.3721094398377 -1.5910904090669291 1.3917648361002013 C -1.6343861571287235 1.381139289008476 -1.6768836552248123 1.3674912674267032 -1.7182703143782927 1.3509211589375438 C -1.61613547355998 1.339339021009313 -1.516768735049459 1.310201850511881 -1.4245523689800832 1.2647946544199684 C -1.5024202842435108 1.2141748343169085 -1.5725837918451555 1.1525934067558006 -1.6328778425696733 1.0819506020127283 C -1.698731308064961 1.1591177968354087 -1.7763307278567007 1.2254285269956684 -1.8628223271349629 1.2784441674127098 C -1.8826295589639503 1.2662918481199834 -1.901976563935735 1.2534754039953442 -1.9208633420503172 1.2399948350387915 C -1.826312907489472 1.186190397672191 -1.7422618039350342 1.1157451997227192 -1.672760286422982 1.0320538547729392 C -1.9260613593401519 0.6914495931750047 -1.9260613593401517 0.22505040682499444 -1.6727602864229822 -0.11555385477294028 C -1.7422471910528725 -0.19921360677870564 -1.8262737769622075 -0.2696344222244236 -1.920793434173273 -0.32342492716174776 C -1.9019532613100538 -0.3369287987439816 -1.8826295589639501 -0.3497685454943021 -1.8628223271349622 -0.3619441674127094 C -1.7763358225972397 -0.3089497258680488 -1.6987366919852853 -0.24266283455941046 -1.6328778425696737 -0.16552050988977268 C -1.572588115796477 -0.23616261248578096 -1.502423824080346 -0.2977388419859863 -1.424552368980082 -0.3483470853277514 C -1.5167648149813444 -0.39376754336437986 -1.6161328794521115 -0.4229110153253706 -1.7182703143782927 -0.43449106681458793 C -1.6768836552248119 -0.4510611753037469 -1.6343861571287233 -0.4647091968855196 -1.5910904090669287 -0.47533474397724507 C -1.5109389506757256 -0.4556571958190428 -1.4336762218371226 -0.4256732414400715 -1.361233309347944 -0.3861322928697557 C -1.2887879069654555 -0.4256511798063665 -1.2115250261231096 -0.4556116947315461 -1.1313762096289595 -0.4752648361002016 C -1.0880785875799193 -0.4646531805675296 -1.045580529020479 -0.4510108190456314 -1.0041963043175948 -0.4344386359068049 C -1.106330547766869 -0.42287508220665426 -1.2056984691938004 -0.39374939013542576 -1.2979142497158058 -0.3483470853277514 C -1.220037350547159 -0.29773921857028474 -1.1498672354789947 -0.2361630442788607 -1.0895712991569542 -0.16552050988977218 C -1.0237181508479904 -0.24266182849860718 -0.9461249330970776 -0.30894870705611016 -0.8596442915609261 -0.3619441674127094 C -0.839837059731938 -0.3497801968071427 -0.820490054760153 -0.336934624400402 -0.8016032766455712 -0.3234074501924873 C -0.896151094549946 -0.2696357124151828 -0.9802028380151842 -0.19921958216496627 -1.0497063322729059 -0.11555385477294006 C -0.7963823068116929 0.22504280731944015 -0.7963823068116929 0.6914571926805595 -1.0497063322729059 1.0320538547729399 C -0.9802236158775648 1.1157130463748894 -0.8961960100687563 1.1861287958030298 -0.8016731845226146 1.2399074501924872 C -0.8205133573858341 1.2534346244004018 -0.839837059731938 1.2662801968071424 -0.8596442915609261 1.2784441674127094 C -0.946128708406117 1.2254539028413918 -1.023722693159518 1.1591663690436207 -1.0895712991569542 1.0820205098897722 C -1.1498724274594958 1.1526628898139586 -1.2200416266271195 1.2142441465618554 -1.2979142497158058 1.2648645622970116 C -1.2056978836464298 1.3102717583889245 -1.106331145135909 1.339408928886357 -1.0041963043175968 1.3509910668145875 C -1.0455829634710765 1.3675611753037473 -1.0880804615671649 1.3812091968855198 -1.1313762096289597 1.3918347439772454 Z M -1.800045053549911 0.45824999999999994 C -1.8003493271121815 0.2710063815150382 -1.7418793480831156 0.08838932416903822 -1.632877842569688 -0.06385697969926057 C -1.5238837948150459 0.08839307125009577 -1.4654146052698556 0.2710076628311747 -1.4657106315894355 0.45824999999999994 C -1.4654146052698442 0.6454923371687717 -1.5238837948150237 0.8281069287498541 -1.6328778425696422 0.980356979699238 C -1.7418793480831054 0.8281106758309855 -1.8003493271121767 0.6454936184849871 -1.800045053549911 0.4582499999999997 Z M -1.4030207428506887 0.45824999999999994 C -1.4026902684664688 0.6650220098528541 -1.4693479656291963 0.8663379433683371 -1.5930128756856137 1.032053854772925 C -1.5275642967076095 1.1108534073777607 -1.4491861406059763 1.1779435014861714 -1.3612333093479445 1.2304524098223548 C -1.2732772934936754 1.1779479333990621 -1.194898434408273 1.1108572375509633 -1.1294537430102631 1.0320538547729392 C -1.382777768471477 0.6914571926805595 -1.382777768471477 0.2250428073194397 -1.1294537430102636 -0.11555385477294028 C -1.1948984344082734 -0.19435723755096423 -1.2732772934936756 -0.261447933399063 -1.3612333093479447 -0.313952409822356 C -1.4491861406059756 -0.261443501486172 -1.527564296707609 -0.19435340737776147 -1.5930128756856243 -0.11555385477294028 C -1.4693513537093428 0.050163822297994876 -1.4026940407844284 0.2514785953594234 -1.4030207428506882 0.45825000000000005 Z M -1.0895712991569544 -0.06385697969928145 C -1.3124857393551528 0.24852420648229545 -1.3124857393551528 0.6679757935177044 -1.0895712991569544 0.9803569796992813 C -0.8666834791010034 0.6679672698912897 -0.8666834791010034 0.24853273010870958 -1.0895712991569546 -0.06385697969928167 Z" fill="#4e888f" transform="matrix(1,0,0,1,0,0)" fill-rule="evenodd"></path></g></g><g><path d=" M 0.891 1.1625 Q 0.8280000000000001 1.1625 0.76125 1.1452499999999999 Q 0.6945 1.128 0.636 1.10475 Q 0.5775 1.0815 0.534 1.0665 Q 0.4545 1.038 0.3855 1.011 Q 0.3165 0.984 0.28800000000000003 0.978 Q 0.14250000000000002 0.9405 0.0825 0.9405 Q 0.07200000000000001 0.948 0.063 0.9532499999999999 Q 0.054 0.9585 0.043500000000000004 0.96 Q 0.039 0.9615 0.03 0.9615 Q 0.003 0.9615 0.003 0.9435 Q 0.003 0.9329999999999999 0.0195 0.9225 Q 0.0315 0.9165 0.04725 0.91575 Q 0.063 0.915 0.0795 0.9135 Q 0.114 0.8835 0.14475 0.837 Q 0.17550000000000002 0.7905 0.189 0.7665 Q 0.201 0.7454999999999999 0.21225 0.72525 Q 0.2235 0.705 0.23550000000000001 0.6855 Q 0.2115 0.6915 0.186 0.69675 Q 0.1605 0.702 0.1365 0.702 Q 0.093 0.702 0.05775 0.6839999999999999 Q 0.0225 0.6659999999999999 0.0225 0.618 Q 0.0225 0.5865 0.05025 0.5595 Q 0.078 0.5325 0.108 0.5325 Q 0.126 0.5325 0.126 0.5475 Q 0.126 0.5565 0.1125 0.5565 Q 0.096 0.5565 0.0825 0.576 Q 0.069 0.5954999999999999 0.069 0.6165 Q 0.069 0.6315 0.07875 0.64575 Q 0.0885 0.6599999999999999 0.1125 0.663 Q 0.135 0.6675 0.1605 0.6675 Q 0.20400000000000001 0.6675 0.249 0.6555 Q 0.27 0.6134999999999999 0.28875 0.5722499999999999 Q 0.3075 0.5309999999999999 0.3255 0.4905 Q 0.363 0.4079999999999999 0.402 0.32999999999999996 Q 0.441 0.252 0.47850000000000004 0.1905 Q 0.516 0.129 0.546 0.09899999999999998 Q 0.603 0.04499999999999993 0.6607500000000001 0.022499999999999964 Q 0.7185 0 0.765 0 Q 0.774 0 0.783 0.0007499999999999174 Q 0.792 0.0014999999999999458 0.7995 0.0030000000000000027 Q 0.855 0.01200000000000001 0.8775000000000001 0.04125000000000001 Q 0.9 0.07050000000000001 0.9 0.11099999999999999 Q 0.9 0.132 0.8955000000000001 0.15449999999999997 Q 0.876 0.249 0.81675 0.3315 Q 0.7575000000000001 0.4139999999999999 0.6735 0.48074999999999996 Q 0.5895 0.5475 0.49425 0.594 Q 0.399 0.6405 0.309 0.6615 Q 0.2895 0.6945 0.26775 0.72675 Q 0.246 0.759 0.2205 0.7905 Q 0.20550000000000002 0.813 0.177 0.84825 Q 0.1485 0.8835 0.11850000000000001 0.9135 Q 0.1395 0.915 0.16425 0.91725 Q 0.189 0.9195 0.2175 0.9239999999999999 Q 0.342 0.9435 0.46725 0.98175 Q 0.5925 1.02 0.7155 1.0514999999999999 Q 0.75 1.0605 0.81375 1.074 Q 0.8775000000000001 1.0875 0.933 1.0875 Q 0.987 1.0875 1.0155 1.068 Q 1.038 1.0545 1.038 1.0305 Q 1.038 1.0125 1.0215 1.0005 Q 1.0125 0.993 1.0125 0.9884999999999999 Q 1.0125 0.9735 1.0305 0.984 Q 1.05 0.9974999999999999 1.05825 1.0155 Q 1.0665 1.0335 1.0665 1.053 Q 1.0665 1.0755 1.05825 1.09425 Q 1.05 1.113 1.038 1.1205 Q 0.9765 1.1625 0.891 1.1625 M 0.3315 0.627 Q 0.498 0.5549999999999999 0.624 0.45149999999999996 Q 0.75 0.348 0.8235 0.1785 Q 0.8475 0.126 0.8475 0.08699999999999997 Q 0.8475 0.055499999999999994 0.8280000000000001 0.03749999999999998 Q 0.8175 0.02399999999999991 0.7935 0.02399999999999991 Q 0.744 0.02399999999999991 0.6915 0.058499999999999996 Q 0.6465 0.09149999999999991 0.60675 0.14549999999999996 Q 0.5670000000000001 0.1995 0.5325 0.25949999999999995 Q 0.498 0.3195 0.47175 0.3727499999999999 Q 0.4455 0.426 0.4275 0.45749999999999996 Q 0.41550000000000004 0.4815 0.39075 0.528 Q 0.366 0.5745 0.3315 0.627 M 0.81448095703125 0.939 Q 0.74698095703125 0.939 0.69748095703125 0.9075 Q 0.64798095703125 0.876 0.64798095703125 0.8115 Q 0.64798095703125 0.7769999999999999 0.66898095703125 0.7275 Q 0.6839809570312501 0.693 0.72448095703125 0.6479999999999999 Q 0.76498095703125 0.603 0.8189809570312501 0.5602499999999999 Q 0.87298095703125 0.5175 0.92848095703125 0.48974999999999996 Q 0.98398095703125 0.46199999999999997 1.02898095703125 0.46199999999999997 Q 1.04548095703125 0.46199999999999997 1.05898095703125 0.46649999999999997 Q 1.08448095703125 0.4755 1.09423095703125 0.495 Q 1.10398095703125 0.5145 1.10398095703125 0.5355 Q 1.10398095703125 0.5549999999999999 1.09798095703125 0.573 Q 1.09198095703125 0.591 1.08298095703125 0.6045 Q 1.05598095703125 0.645 1.00573095703125 0.6765 Q 0.95548095703125 0.708 0.90373095703125 0.726 Q 0.85198095703125 0.744 0.8189809570312501 0.747 L 0.81598095703125 0.747 Q 0.79648095703125 0.747 0.79648095703125 0.735 Q 0.79648095703125 0.7275 0.80848095703125 0.7275 Q 0.84448095703125 0.7244999999999999 0.89923095703125 0.69375 Q 0.9539809570312501 0.663 0.99598095703125 0.6299999999999999 Q 1.01398095703125 0.615 1.03873095703125 0.588 Q 1.06348095703125 0.5609999999999999 1.06348095703125 0.5355 Q 1.06348095703125 0.5085 1.03798095703125 0.5085 Q 1.02448095703125 0.5085 1.01023095703125 0.5145 Q 0.99598095703125 0.5205 0.98698095703125 0.5235 Q 0.94348095703125 0.5445 0.89098095703125 0.58875 Q 0.83848095703125 0.633 0.79573095703125 0.68775 Q 0.75298095703125 0.7424999999999999 0.73648095703125 0.7979999999999999 Q 0.73198095703125 0.8099999999999999 0.73048095703125 0.82125 Q 0.72898095703125 0.8325 0.72898095703125 0.843 Q 0.72898095703125 0.879 0.75223095703125 0.894 Q 0.77548095703125 0.909 0.80848095703125 0.909 Q 0.85798095703125 0.909 0.91048095703125 0.88725 Q 0.96298095703125 0.8654999999999999 1.01248095703125 0.831 Q 1.06198095703125 0.7965 1.10323095703125 0.75675 Q 1.14448095703125 0.717 1.1729809570312502 0.6795 Q 1.1774809570312499 0.6735 1.1834809570312501 0.67275 Q 1.18948095703125 0.6719999999999999 1.19098095703125 0.675 Q 1.19698095703125 0.6765 1.19698095703125 0.6832499999999999 Q 1.19698095703125 0.69 1.19398095703125 0.696 Q 1.15198095703125 0.7545 1.09273095703125 0.8099999999999999 Q 1.03348095703125 0.8654999999999999 0.96223095703125 0.90225 Q 0.89098095703125 0.939 0.81448095703125 0.939 M 1.8479267578125 1.4715 Q 1.7939267578125 1.4715 1.7616767578124999 1.4415 Q 1.7294267578125 1.4115 1.7294267578125 1.3605 Q 1.7294267578125 1.32 1.7519267578125 1.26975 Q 1.7744267578125 1.2195 1.8239267578125 1.164 Q 1.9259267578125 1.047 2.0511767578124998 0.972 Q 2.1764267578125 0.897 2.3204267578125 0.8505 Q 2.3414267578125 0.7935 2.3594267578125 0.73425 Q 2.3774267578125 0.675 2.3954267578125 0.615 Q 2.3219267578125002 0.6839999999999999 2.2334267578125 0.75225 Q 2.1449267578124998 0.8205 2.0459267578125 0.86625 Q 1.9469267578125 0.912 1.8404267578125 0.912 Q 1.7624267578125 0.912 1.6926767578125 0.8827499999999999 Q 1.6229267578125 0.8534999999999999 1.5794267578125 0.7935 Q 1.5359267578125 0.7335 1.5359267578125 0.639 Q 1.5359267578125 0.4065 1.7429267578125 0.22049999999999992 Q 1.8629267578125 0.11099999999999999 2.0046767578124998 0.062249999999999917 Q 2.1464267578125 0.013499999999999956 2.3039267578125 0.013499999999999956 Q 2.3219267578125002 0.013499999999999956 2.3556767578124997 0.017249999999999988 Q 2.3894267578125 0.020999999999999908 2.4254267578124997 0.03225 Q 2.4614267578125 0.04349999999999998 2.4884267578125003 0.06374999999999997 Q 2.5154267578125 0.08399999999999996 2.5199267578124998 0.11549999999999994 Q 2.5214267578125 0.12149999999999994 2.5214267578125 0.126 Q 2.5214267578125 0.13049999999999995 2.5214267578125 0.135 Q 2.5214267578125 0.1529999999999999 2.5154267578125 0.16199999999999992 Q 2.5094267578125002 0.17099999999999993 2.5019267578125 0.17099999999999993 Q 2.4869267578125003 0.17099999999999993 2.4869267578125003 0.14700000000000002 Q 2.4839267578125 0.10649999999999993 2.4606767578125 0.08474999999999999 Q 2.4374267578125 0.06299999999999994 2.4036767578125 0.055499999999999994 Q 2.3699267578125003 0.04799999999999993 2.3354267578125 0.04799999999999993 Q 2.2799267578125 0.04799999999999993 2.2026767578125 0.07124999999999992 Q 2.1254267578125 0.09449999999999992 2.0399267578125 0.13574999999999993 Q 1.9544267578125 0.17699999999999994 1.8711767578125 0.23324999999999996 Q 1.7879267578125 0.2895 1.7204267578125 0.35624999999999996 Q 1.6529267578125 0.423 1.6124267578125 0.4965 Q 1.5719267578125 0.57 1.5719267578125 0.645 Q 1.5719267578125 0.7484999999999999 1.6401767578125 0.79425 Q 1.7084267578125 0.84 1.8134267578125 0.84 Q 1.9154267578125 0.84 2.0294267578125 0.8039999999999999 Q 2.1149267578125 0.7785 2.1764267578125 0.74025 Q 2.2379267578125 0.702 2.2934267578125 0.65175 Q 2.3489267578125 0.6014999999999999 2.4119267578125 0.5415 Q 2.4389267578125002 0.4725 2.4824267578125 0.45299999999999996 Q 2.5259267578125 0.4335 2.5634267578125 0.4335 Q 2.5844267578125 0.4335 2.6009267578125 0.4365 Q 2.6174267578125 0.43949999999999995 2.6234267578125 0.43949999999999995 Q 2.6354267578125 0.44099999999999995 2.6354267578125 0.44849999999999995 Q 2.6354267578125 0.46199999999999997 2.6174267578125 0.45899999999999996 Q 2.5709267578125 0.45599999999999996 2.5364267578125 0.5017499999999999 Q 2.5019267578125 0.5475 2.4809267578125 0.6105 Q 2.4614267578125 0.663 2.4434267578125 0.7184999999999999 Q 2.4254267578124997 0.774 2.4044267578125 0.8295 Q 2.4809267578125 0.8085 2.5184267578124997 0.8085 Q 2.5364267578125 0.8085 2.5424267578124997 0.813 Q 2.5484267578125 0.8175 2.5484267578125 0.825 Q 2.5484267578125 0.8385 2.5379267578125 0.834 Q 2.5289267578125 0.831 2.5184267578124997 0.831 Q 2.4989267578125 0.831 2.4689267578125 0.83775 Q 2.4389267578125002 0.8445 2.4149267578125 0.855 Q 2.3909267578125 0.8654999999999999 2.3849267578125 0.8805 Q 2.3204267578125 1.044 2.2484267578125 1.1564999999999999 Q 2.1764267578125 1.269 2.1036767578125 1.33875 Q 2.0309267578125 1.4085 1.9649267578125 1.44 Q 1.8989267578125 1.4715 1.8479267578125 1.4715 M 1.8899267578125 1.4325 Q 1.9454267578125 1.4325 1.9994267578125 1.38975 Q 2.0534267578125 1.347 2.1036767578125 1.2795 Q 2.1539267578125 1.212 2.1951767578125 1.1355 Q 2.2364267578125 1.059 2.2664267578125 0.99 Q 2.2964267578125 0.9209999999999999 2.3114267578125 0.879 Q 2.1884267578125 0.9195 2.0834267578125 0.987 Q 1.9784267578125 1.0545 1.8959267578125 1.1564999999999999 Q 1.8509267578125 1.212 1.8306767578125 1.26 Q 1.8104267578125 1.308 1.8104267578125 1.3455 Q 1.8104267578125 1.3860000000000001 1.8321767578125 1.4092500000000001 Q 1.8539267578125 1.4325 1.8899267578125 1.4325 M 2.79888720703125 0.9329999999999999 Q 2.75688720703125 0.9329999999999999 2.72538720703125 0.9135 Q 2.67288720703125 0.882 2.67288720703125 0.7995 Q 2.67288720703125 0.765 2.68488720703125 0.72 Q 2.69538720703125 0.6825 2.72238720703125 0.63825 Q 2.74938720703125 0.594 2.78613720703125 0.5535 Q 2.82288720703125 0.5129999999999999 2.86638720703125 0.4875 Q 2.9098872070312503 0.46199999999999997 2.95338720703125 0.46199999999999997 Q 2.97138720703125 0.46199999999999997 2.98488720703125 0.46649999999999997 Q 3.0028872070312502 0.4725 3.01563720703125 0.48824999999999996 Q 3.02838720703125 0.504 3.02838720703125 0.528 Q 3.02838720703125 0.5535 3.01563720703125 0.5565 Q 3.0028872070312502 0.5595 3.0028872070312502 0.5505 Q 3.0028872070312502 0.5475 3.0036372070312503 0.5445 Q 3.00438720703125 0.5415 3.00438720703125 0.54 Q 3.00438720703125 0.528 2.99763720703125 0.51825 Q 2.9908872070312498 0.5085 2.97288720703125 0.5085 Q 2.94888720703125 0.5085 2.91363720703125 0.534 Q 2.87838720703125 0.5595 2.84163720703125 0.60225 Q 2.80488720703125 0.645 2.77713720703125 0.696 Q 2.74938720703125 0.747 2.74038720703125 0.7979999999999999 Q 2.73888720703125 0.8055 2.73813720703125 0.81225 Q 2.73738720703125 0.819 2.73738720703125 0.8265 Q 2.73738720703125 0.861 2.75313720703125 0.88425 Q 2.76888720703125 0.9075 2.8033872070312498 0.9075 Q 2.84538720703125 0.9075 2.88438720703125 0.87525 Q 2.92338720703125 0.843 2.95413720703125 0.7979999999999999 Q 2.98488720703125 0.753 2.99988720703125 0.7184999999999999 Q 3.01188720703125 0.6915 3.01638720703125 0.6719999999999999 Q 3.02088720703125 0.6525 3.02088720703125 0.639 Q 3.02088720703125 0.627 3.01863720703125 0.618 Q 3.01638720703125 0.609 3.01338720703125 0.603 Q 3.01038720703125 0.594 3.01038720703125 0.5894999999999999 Q 3.01038720703125 0.5774999999999999 3.02013720703125 0.57 Q 3.02988720703125 0.5625 3.04038720703125 0.5625 Q 3.04938720703125 0.5625 3.05988720703125 0.5685 Q 3.07188720703125 0.5714999999999999 3.09288720703125 0.573 Q 3.11388720703125 0.5745 3.13788720703125 0.5745 Q 3.16338720703125 0.5745 3.18963720703125 0.573 Q 3.21588720703125 0.5714999999999999 3.23538720703125 0.567 Q 3.2383872070312503 0.5654999999999999 3.24438720703125 0.5654999999999999 Q 3.25488720703125 0.5654999999999999 3.25488720703125 0.5714999999999999 Q 3.25488720703125 0.5774999999999999 3.24438720703125 0.582 Q 3.1918872070312503 0.606 3.15063720703125 0.6074999999999999 Q 3.10938720703125 0.609 3.07938720703125 0.609 Q 3.08238720703125 0.6465 3.06288720703125 0.6892499999999999 Q 3.04338720703125 0.732 3.02238720703125 0.765 Q 2.99688720703125 0.8025 2.96388720703125 0.8415 Q 2.93088720703125 0.8805 2.89038720703125 0.90675 Q 2.84988720703125 0.9329999999999999 2.79888720703125 0.9329999999999999 M 3.608906982421875 0.9315 Q 3.581906982421875 0.9315 3.560906982421875 0.9195 Q 3.539906982421875 0.9075 3.5294069824218752 0.8744999999999999 Q 3.527906982421875 0.867 3.525656982421875 0.85725 Q 3.523406982421875 0.8474999999999999 3.523406982421875 0.837 Q 3.523406982421875 0.8009999999999999 3.533156982421875 0.756 Q 3.542906982421875 0.711 3.554906982421875 0.6809999999999999 Q 3.548906982421875 0.6855 3.533906982421875 0.711 Q 3.518906982421875 0.7364999999999999 3.496406982421875 0.77025 Q 3.473906982421875 0.8039999999999999 3.446156982421875 0.83775 Q 3.418406982421875 0.8714999999999999 3.386156982421875 0.89325 Q 3.353906982421875 0.915 3.317906982421875 0.915 Q 3.293906982421875 0.915 3.260156982421875 0.9015 Q 3.226406982421875 0.888 3.211406982421875 0.864 Q 3.196406982421875 0.84 3.196406982421875 0.8039999999999999 Q 3.196406982421875 0.7605 3.215906982421875 0.70875 Q 3.235406982421875 0.657 3.265406982421875 0.612 Q 3.275906982421875 0.597 3.289406982421875 0.576 Q 3.302906982421875 0.5549999999999999 3.316406982421875 0.53925 Q 3.3299069824218748 0.5235 3.335906982421875 0.522 Q 3.353906982421875 0.516 3.377906982421875 0.516 Q 3.403406982421875 0.516 3.415406982421875 0.522 Q 3.425906982421875 0.5265 3.425906982421875 0.5325 Q 3.425906982421875 0.54 3.413906982421875 0.552 Q 3.397406982421875 0.567 3.368906982421875 0.597 Q 3.340406982421875 0.627 3.312656982421875 0.669 Q 3.284906982421875 0.711 3.266906982421875 0.762 Q 3.251906982421875 0.8025 3.251906982421875 0.8325 Q 3.251906982421875 0.885 3.293906982421875 0.885 Q 3.3299069824218748 0.885 3.370406982421875 0.855 Q 3.410906982421875 0.825 3.449156982421875 0.7815 Q 3.487406982421875 0.738 3.518156982421875 0.6952499999999999 Q 3.548906982421875 0.6525 3.565406982421875 0.627 Q 3.580406982421875 0.606 3.599156982421875 0.573 Q 3.617906982421875 0.54 3.635906982421875 0.5085 Q 3.653906982421875 0.477 3.664406982421875 0.46199999999999997 Q 3.674906982421875 0.46199999999999997 3.696656982421875 0.46575 Q 3.7184069824218753 0.4695 3.734156982421875 0.4785 Q 3.749906982421875 0.4875 3.742406982421875 0.5009999999999999 Q 3.733406982421875 0.516 3.714656982421875 0.5475 Q 3.695906982421875 0.579 3.677156982421875 0.61125 Q 3.658406982421875 0.6435 3.647906982421875 0.663 Q 3.611906982421875 0.732 3.601406982421875 0.8115 Q 3.5999069824218752 0.8175 3.5999069824218752 0.82275 Q 3.5999069824218752 0.828 3.5999069824218752 0.834 Q 3.5999069824218752 0.894 3.640406982421875 0.894 Q 3.662906982421875 0.894 3.700406982421875 0.867 Q 3.737906982421875 0.84 3.777656982421875 0.8025 Q 3.817406982421875 0.765 3.849656982421875 0.72975 Q 3.8819069824218753 0.6945 3.893906982421875 0.6765 Q 3.896906982421875 0.6719999999999999 3.902906982421875 0.6719999999999999 Q 3.908906982421875 0.6719999999999999 3.912656982421875 0.6765 Q 3.916406982421875 0.6809999999999999 3.911906982421875 0.6885 Q 3.898406982421875 0.714 3.866156982421875 0.75225 Q 3.833906982421875 0.7905 3.794906982421875 0.82875 Q 3.755906982421875 0.867 3.7184069824218753 0.894 Q 3.698906982421875 0.909 3.668906982421875 0.92025 Q 3.638906982421875 0.9315 3.608906982421875 0.9315 M 4.072361572265625 0.9345 Q 4.046861572265625 0.9345 4.027361572265625 0.92325 Q 4.007861572265625 0.912 4.000361572265625 0.8805 Q 3.9958615722656248 0.864 3.9958615722656248 0.8474999999999999 Q 3.9958615722656248 0.8025 4.019111572265625 0.7597499999999999 Q 4.042361572265625 0.717 4.073861572265625 0.68025 Q 4.105361572265625 0.6435 4.127861572265625 0.618 Q 4.139861572265625 0.606 4.155611572265625 0.5865 Q 4.171361572265625 0.567 4.171361572265625 0.5475 Q 4.171361572265625 0.5355 4.159361572265625 0.52425 Q 4.147361572265625 0.5129999999999999 4.115861572265625 0.5085 Q 4.097861572265625 0.5055 4.082111572265625 0.50325 Q 4.066361572265625 0.5009999999999999 4.049861572265625 0.5009999999999999 Q 4.007861572265625 0.558 3.968111572265625 0.61575 Q 3.928361572265625 0.6735 3.883361572265625 0.729 Q 3.872861572265625 0.7395 3.865361572265625 0.7395 Q 3.856361572265625 0.7395 3.856361572265625 0.7304999999999999 Q 3.856361572265625 0.7215 3.865361572265625 0.7124999999999999 Q 3.946361572265625 0.6134999999999999 4.004861572265625 0.5009999999999999 Q 3.997361572265625 0.5009999999999999 3.982361572265625 0.50025 Q 3.967361572265625 0.4995 3.958361572265625 0.498 Q 3.947861572265625 0.495 3.941861572265625 0.489 Q 3.935861572265625 0.483 3.935861572265625 0.477 Q 3.935861572265625 0.46799999999999997 3.943361572265625 0.46649999999999997 Q 3.962861572265625 0.46049999999999996 3.985361572265625 0.44849999999999995 Q 4.007861572265625 0.4365 4.027361572265625 0.417 Q 4.048361572265625 0.396 4.066361572265625 0.3727499999999999 Q 4.084361572265625 0.3494999999999999 4.094861572265625 0.3375 Q 4.105361572265625 0.32999999999999996 4.117361572265625 0.32999999999999996 Q 4.124861572265625 0.32999999999999996 4.131611572265625 0.3345 Q 4.138361572265625 0.33899999999999997 4.138361572265625 0.348 Q 4.138361572265625 0.35849999999999993 4.129361572265625 0.375 Q 4.115861572265625 0.396 4.100111572265625 0.4215 Q 4.084361572265625 0.44699999999999995 4.070861572265625 0.46799999999999997 Q 4.097861572265625 0.4695 4.124861572265625 0.471 Q 4.151861572265625 0.4725 4.180361572265625 0.4725 Q 4.195361572265625 0.4725 4.209611572265625 0.47174999999999995 Q 4.223861572265625 0.471 4.238861572265625 0.471 Q 4.283861572265625 0.471 4.283861572265625 0.4935 Q 4.283861572265625 0.5085 4.268111572265625 0.53025 Q 4.252361572265625 0.552 4.229861572265625 0.5774999999999999 Q 4.178861572265625 0.6359999999999999 4.142861572265625 0.7005 Q 4.106861572265625 0.765 4.094861572265625 0.7995 Q 4.082861572265625 0.8355 4.082861572265625 0.8534999999999999 Q 4.082861572265625 0.8895 4.111361572265625 0.8895 Q 4.136861572265625 0.8895 4.173611572265625 0.864 Q 4.210361572265625 0.8385 4.249361572265625 0.80175 Q 4.288361572265625 0.765 4.319861572265625 0.72975 Q 4.351361572265625 0.6945 4.3648615722656245 0.6765 Q 4.367861572265625 0.6719999999999999 4.373861572265625 0.6719999999999999 Q 4.379861572265625 0.6719999999999999 4.384361572265625 0.6772499999999999 Q 4.3888615722656255 0.6825 4.384361572265625 0.69 Q 4.367861572265625 0.7155 4.336361572265625 0.7537499999999999 Q 4.304861572265625 0.792 4.265861572265625 0.8295 Q 4.226861572265625 0.867 4.189361572265625 0.894 Q 4.169861572265625 0.909 4.136111572265625 0.92175 Q 4.102361572265625 0.9345 4.072361572265625 0.9345 M 4.319900390625 0.9359999999999999 Q 4.307900390625 0.9359999999999999 4.312400390625 0.9255 Q 4.318400390625 0.915 4.334150390625 0.87225 Q 4.349900390625 0.8295 4.370150390625 0.771 Q 4.390400390625 0.7124999999999999 4.409900390625 0.6585 Q 4.394900390625 0.6809999999999999 4.377650390625 0.702 Q 4.360400390625 0.723 4.348400390625 0.7364999999999999 Q 4.343900390625 0.741 4.342400390625 0.741 Q 4.337900390625 0.741 4.337900390625 0.732 Q 4.337900390625 0.714 4.346900390625 0.699 Q 4.378400390625 0.6585 4.394900390625 0.63525 Q 4.411400390625 0.612 4.422650390625 0.59325 Q 4.433900390625 0.5745 4.445900390625 0.5505 Q 4.448900390625 0.534 4.457150390625 0.51 Q 4.465400390625 0.486 4.496900390625 0.486 Q 4.543400390625 0.486 4.543400390625 0.5055 Q 4.543400390625 0.5115 4.540400390625 0.51825 Q 4.537400390625 0.5249999999999999 4.534400390625 0.5325 Q 4.516400390625 0.573 4.495400390625 0.6255 Q 4.474400390625 0.6779999999999999 4.457150390625 0.7244999999999999 Q 4.439900390625 0.771 4.430900390625 0.7965 Q 4.447400390625 0.7755 4.480400390625 0.73725 Q 4.513400390625 0.699 4.556150390625 0.65325 Q 4.598900390625 0.6074999999999999 4.644650390625 0.5662499999999999 Q 4.690400390625 0.5249999999999999 4.730900390625 0.498 Q 4.771400390625 0.471 4.799900390625 0.471 Q 4.834400390625 0.471 4.834400390625 0.51 Q 4.834400390625 0.54 4.810400390625 0.588 Q 4.799900390625 0.6105 4.781900390625 0.6487499999999999 Q 4.763900390625 0.6869999999999999 4.753400390625 0.7065 Q 4.780400390625 0.6825 4.814900390625 0.65325 Q 4.849400390625 0.624 4.887650390625 0.5985 Q 4.925900390625 0.573 4.958900390625 0.5609999999999999 Q 4.966400390625 0.558 4.988900390625 0.55125 Q 5.011400390625 0.5445 5.027900390625 0.5445 Q 5.050400390625 0.5445 5.050400390625 0.5595 Q 5.050400390625 0.57 5.039900390625 0.582 Q 5.014400390625 0.621 4.994150390625 0.6652499999999999 Q 4.973900390625 0.7095 4.961900390625 0.7484999999999999 Q 4.949900390625 0.7875 4.946900390625 0.8115 Q 4.945400390625 0.8175 4.945400390625 0.82275 Q 4.945400390625 0.828 4.945400390625 0.834 Q 4.945400390625 0.894 4.984400390625 0.894 Q 5.008400390625 0.894 5.045900390625 0.86775 Q 5.083400390625 0.8415 5.122400390625 0.80325 Q 5.161400390625 0.765 5.193650390625 0.72975 Q 5.225900390625 0.6945 5.237900390625 0.6765 Q 5.242400390625 0.6719999999999999 5.246900390625 0.6719999999999999 Q 5.252900390625 0.6719999999999999 5.256650390625 0.6765 Q 5.260400390625 0.6809999999999999 5.2574003906249995 0.6885 Q 5.243900390625 0.714 5.211650390625 0.75225 Q 5.179400390625 0.7905 5.139650390625 0.82875 Q 5.099900390625 0.867 5.062400390625 0.894 Q 5.042900390625 0.909 5.013650390625 0.92025 Q 4.984400390625 0.9315 4.9544003906250005 0.9315 Q 4.927400390625 0.9315 4.905650390625 0.9195 Q 4.883900390625 0.9075 4.873400390625 0.8744999999999999 Q 4.868900390625 0.861 4.868900390625 0.84 Q 4.868900390625 0.8069999999999999 4.877900390625 0.765 Q 4.886900390625 0.723 4.897400390625 0.6945 Q 4.904900390625 0.6735 4.917650390625 0.64725 Q 4.930400390625 0.621 4.940900390625 0.603 Q 4.894400390625 0.621 4.850900390625 0.657 Q 4.807400390625 0.693 4.772150390625 0.72975 Q 4.736900390625 0.7665 4.712900390625 0.7905 Q 4.706900390625 0.8069999999999999 4.689650390625 0.8175 Q 4.6724003906250005 0.828 4.657400390625 0.828 Q 4.634900390625 0.828 4.634900390625 0.8085 Q 4.634900390625 0.8009999999999999 4.639400390625 0.7905 Q 4.654400390625 0.7545 4.673150390625 0.7162499999999999 Q 4.691900390625 0.6779999999999999 4.707650390625 0.6465 Q 4.723400390625 0.615 4.729400390625 0.603 Q 4.741400390625 0.582 4.741400390625 0.57 Q 4.741400390625 0.558 4.730900390625 0.558 Q 4.720400390625 0.558 4.696400390625 0.5714999999999999 Q 4.6724003906250005 0.585 4.633400390625 0.6194999999999999 Q 4.601900390625 0.6479999999999999 4.564400390625 0.69375 Q 4.526900390625 0.7395 4.492400390625 0.7875 Q 4.457900390625 0.8355 4.431650390625 0.87 Q 4.405400390625 0.9045 4.394900390625 0.9105 Q 4.385900390625 0.915 4.359650390625 0.9255 Q 4.333400390625 0.9359999999999999 4.319900390625 0.9359999999999999 M 5.356412109375 0.939 Q 5.288912109375 0.939 5.239412109375 0.9075 Q 5.189912109375 0.876 5.189912109375 0.8115 Q 5.189912109375 0.7769999999999999 5.210912109375 0.7275 Q 5.225912109375 0.693 5.266412109375 0.6479999999999999 Q 5.306912109375 0.603 5.360912109375 0.5602499999999999 Q 5.414912109375 0.5175 5.470412109375 0.48974999999999996 Q 5.525912109375 0.46199999999999997 5.570912109375 0.46199999999999997 Q 5.587412109375 0.46199999999999997 5.600912109375 0.46649999999999997 Q 5.626412109375 0.4755 5.636162109375 0.495 Q 5.645912109375 0.5145 5.645912109375 0.5355 Q 5.645912109375 0.5549999999999999 5.639912109375 0.573 Q 5.633912109375 0.591 5.624912109375 0.6045 Q 5.597912109375 0.645 5.547662109375 0.6765 Q 5.497412109375 0.708 5.445662109375 0.726 Q 5.393912109375 0.744 5.360912109375 0.747 L 5.357912109375 0.747 Q 5.338412109375 0.747 5.338412109375 0.735 Q 5.338412109375 0.7275 5.350412109375 0.7275 Q 5.386412109375 0.7244999999999999 5.441162109375 0.69375 Q 5.495912109375 0.663 5.537912109375 0.6299999999999999 Q 5.555912109375 0.615 5.580662109375 0.588 Q 5.605412109375 0.5609999999999999 5.605412109375 0.5355 Q 5.605412109375 0.5085 5.579912109375 0.5085 Q 5.566412109375 0.5085 5.552162109375 0.5145 Q 5.537912109375 0.5205 5.528912109375 0.5235 Q 5.485412109375 0.5445 5.432912109375 0.58875 Q 5.380412109375 0.633 5.337662109375 0.68775 Q 5.294912109375 0.7424999999999999 5.278412109375 0.7979999999999999 Q 5.273912109375 0.8099999999999999 5.272412109375 0.82125 Q 5.270912109375 0.8325 5.270912109375 0.843 Q 5.270912109375 0.879 5.294162109375 0.894 Q 5.317412109375 0.909 5.350412109375 0.909 Q 5.399912109375 0.909 5.452412109375 0.88725 Q 5.504912109375 0.8654999999999999 5.554412109375 0.831 Q 5.603912109375 0.7965 5.645162109375 0.75675 Q 5.686412109375 0.717 5.714912109375 0.6795 Q 5.719412109375 0.6735 5.725412109375 0.67275 Q 5.731412109375 0.6719999999999999 5.732912109375 0.675 Q 5.738912109375 0.6765 5.738912109375 0.6832499999999999 Q 5.738912109375 0.69 5.7359121093750005 0.696 Q 5.693912109375 0.7545 5.634662109375 0.8099999999999999 Q 5.575412109375 0.8654999999999999 5.504162109375 0.90225 Q 5.432912109375 0.939 5.356412109375 0.939 M 5.77186669921875 0.9315 Q 5.74486669921875 0.9315 5.72311669921875 0.9195 Q 5.70136669921875 0.9075 5.69086669921875 0.8744999999999999 Q 5.68936669921875 0.87 5.68861669921875 0.8654999999999999 Q 5.68786669921875 0.861 5.68786669921875 0.855 Q 5.68786669921875 0.825 5.70136669921875 0.78 Q 5.71486669921875 0.735 5.73436669921875 0.693 Q 5.72536669921875 0.705 5.71336669921875 0.72225 Q 5.70136669921875 0.7395 5.67886669921875 0.7665 Q 5.67286669921875 0.7725 5.66536669921875 0.7725 Q 5.65486669921875 0.7725 5.65486669921875 0.7605 Q 5.65486669921875 0.7515 5.66086669921875 0.7454999999999999 Q 5.69986669921875 0.696 5.73061669921875 0.657 Q 5.76136669921875 0.618 5.77636669921875 0.591 Q 5.77636669921875 0.588 5.78536669921875 0.5722499999999999 Q 5.79436669921875 0.5565 5.80936669921875 0.528 Q 5.79736669921875 0.5295 5.78911669921875 0.53025 Q 5.78086669921875 0.5309999999999999 5.77486669921875 0.5309999999999999 Q 5.76436669921875 0.5309999999999999 5.75686669921875 0.522 Q 5.74936669921875 0.5129999999999999 5.75536669921875 0.4995 Q 5.76286669921875 0.4785 5.78836669921875 0.4755 Q 5.81386669921875 0.4725 5.83336669921875 0.471 Q 5.83486669921875 0.46799999999999997 5.83936669921875 0.46799999999999997 Q 5.85736669921875 0.435 5.87386669921875 0.40349999999999997 Q 5.89036669921875 0.372 5.90161669921875 0.351 Q 5.91286669921875 0.32999999999999996 5.91286669921875 0.3285 Q 5.94286669921875 0.28049999999999997 5.95186669921875 0.26474999999999993 Q 5.96086669921875 0.249 5.97586669921875 0.246 Q 5.99236669921875 0.24449999999999994 6.01111669921875 0.24749999999999994 Q 6.02986669921875 0.25049999999999994 6.03586669921875 0.261 Q 6.04036669921875 0.267 6.04036669921875 0.276 Q 6.04036669921875 0.2895 6.03436669921875 0.30225 Q 6.02836669921875 0.31499999999999995 6.02236669921875 0.3225 Q 6.01636669921875 0.33299999999999996 6.00661669921875 0.33675 Q 5.99686669921875 0.3404999999999999 5.98936669921875 0.3554999999999999 Q 5.97436669921875 0.384 5.95636669921875 0.417 Q 5.93836669921875 0.44999999999999996 5.91886669921875 0.48 L 5.93686669921875 0.4785 Q 5.97286669921875 0.4755 6.00511669921875 0.471 Q 6.03736669921875 0.46649999999999997 6.07936669921875 0.46799999999999997 Q 6.08686669921875 0.46799999999999997 6.0951166992187495 0.47024999999999995 Q 6.10336669921875 0.4725 6.10336669921875 0.477 Q 6.10336669921875 0.483 6.06436669921875 0.4935 Q 6.04936669921875 0.4995 5.99911669921875 0.50625 Q 5.94886669921875 0.5129999999999999 5.89636669921875 0.5189999999999999 Q 5.88136669921875 0.5475 5.86936669921875 0.5662499999999999 Q 5.85736669921875 0.585 5.85286669921875 0.594 Q 5.81986669921875 0.663 5.79361669921875 0.71925 Q 5.76736669921875 0.7755 5.76436669921875 0.8115 Q 5.76286669921875 0.8175 5.76286669921875 0.82275 Q 5.76286669921875 0.828 5.76286669921875 0.834 Q 5.76286669921875 0.894 5.80186669921875 0.894 Q 5.82586669921875 0.894 5.86336669921875 0.86775 Q 5.90086669921875 0.8415 5.93986669921875 0.80325 Q 5.9788666992187505 0.765 6.01111669921875 0.72975 Q 6.04336669921875 0.6945 6.05536669921875 0.6765 Q 6.05986669921875 0.6719999999999999 6.06436669921875 0.6719999999999999 Q 6.07036669921875 0.6719999999999999 6.07411669921875 0.6765 Q 6.07786669921875 0.6809999999999999 6.07486669921875 0.6885 Q 6.06136669921875 0.714 6.02911669921875 0.75225 Q 5.99686669921875 0.7905 5.95711669921875 0.82875 Q 5.91736669921875 0.867 5.87986669921875 0.894 Q 5.86036669921875 0.909 5.83111669921875 0.92025 Q 5.80186669921875 0.9315 5.77186669921875 0.9315 M 7.196877685546875 1.1625 Q 7.133877685546875 1.1625 7.067127685546875 1.1452499999999999 Q 7.000377685546875 1.128 6.941877685546875 1.10475 Q 6.883377685546875 1.0815 6.839877685546875 1.0665 Q 6.760377685546875 1.038 6.691377685546875 1.011 Q 6.622377685546875 0.984 6.593877685546875 0.978 Q 6.448377685546875 0.9405 6.388377685546875 0.9405 Q 6.377877685546875 0.948 6.368877685546875 0.9532499999999999 Q 6.359877685546875 0.9585 6.349377685546875 0.96 Q 6.344877685546875 0.9615 6.335877685546875 0.9615 Q 6.308877685546875 0.9615 6.308877685546875 0.9435 Q 6.308877685546875 0.9329999999999999 6.325377685546875 0.9225 Q 6.337377685546875 0.9165 6.353127685546875 0.91575 Q 6.368877685546875 0.915 6.385377685546875 0.9135 Q 6.419877685546875 0.8835 6.450627685546875 0.837 Q 6.481377685546875 0.7905 6.494877685546875 0.7665 Q 6.506877685546875 0.7454999999999999 6.518127685546875 0.72525 Q 6.529377685546875 0.705 6.541377685546875 0.6855 Q 6.517377685546875 0.6915 6.491877685546875 0.69675 Q 6.466377685546875 0.702 6.442377685546875 0.702 Q 6.398877685546875 0.702 6.363627685546875 0.6839999999999999 Q 6.328377685546875 0.6659999999999999 6.328377685546875 0.618 Q 6.328377685546875 0.5865 6.356127685546875 0.5595 Q 6.383877685546875 0.5325 6.413877685546875 0.5325 Q 6.431877685546875 0.5325 6.431877685546875 0.5475 Q 6.431877685546875 0.5565 6.418377685546875 0.5565 Q 6.401877685546875 0.5565 6.388377685546875 0.576 Q 6.374877685546875 0.5954999999999999 6.374877685546875 0.6165 Q 6.374877685546875 0.6315 6.384627685546875 0.64575 Q 6.394377685546875 0.6599999999999999 6.418377685546875 0.663 Q 6.440877685546875 0.6675 6.466377685546875 0.6675 Q 6.509877685546875 0.6675 6.554877685546875 0.6555 Q 6.575877685546875 0.6134999999999999 6.594627685546875 0.5722499999999999 Q 6.613377685546875 0.5309999999999999 6.631377685546875 0.4905 Q 6.6688776855468745 0.4079999999999999 6.707877685546875 0.32999999999999996 Q 6.746877685546875 0.252 6.784377685546875 0.1905 Q 6.821877685546875 0.129 6.851877685546875 0.09899999999999998 Q 6.908877685546875 0.04499999999999993 6.966627685546875 0.022499999999999964 Q 7.024377685546875 0 7.070877685546875 0 Q 7.079877685546875 0 7.088877685546875 0.0007499999999999174 Q 7.097877685546875 0.0014999999999999458 7.105377685546875 0.0030000000000000027 Q 7.160877685546875 0.01200000000000001 7.183377685546875 0.04125000000000001 Q 7.205877685546875 0.07050000000000001 7.205877685546875 0.11099999999999999 Q 7.205877685546875 0.132 7.201377685546875 0.15449999999999997 Q 7.181877685546875 0.249 7.122627685546875 0.3315 Q 7.063377685546875 0.4139999999999999 6.979377685546875 0.48074999999999996 Q 6.895377685546875 0.5475 6.800127685546875 0.594 Q 6.704877685546875 0.6405 6.614877685546875 0.6615 Q 6.595377685546875 0.6945 6.573627685546875 0.72675 Q 6.551877685546875 0.759 6.526377685546875 0.7905 Q 6.511377685546875 0.813 6.482877685546875 0.84825 Q 6.454377685546875 0.8835 6.424377685546875 0.9135 Q 6.445377685546875 0.915 6.470127685546875 0.91725 Q 6.494877685546875 0.9195 6.523377685546875 0.9239999999999999 Q 6.647877685546875 0.9435 6.773127685546875 0.98175 Q 6.898377685546875 1.02 7.0213776855468755 1.0514999999999999 Q 7.055877685546875 1.0605 7.119627685546875 1.074 Q 7.183377685546875 1.0875 7.238877685546875 1.0875 Q 7.292877685546875 1.0875 7.321377685546875 1.068 Q 7.343877685546875 1.0545 7.343877685546875 1.0305 Q 7.343877685546875 1.0125 7.327377685546875 1.0005 Q 7.318377685546875 0.993 7.318377685546875 0.9884999999999999 Q 7.318377685546875 0.9735 7.336377685546875 0.984 Q 7.355877685546875 0.9974999999999999 7.364127685546875 1.0155 Q 7.372377685546875 1.0335 7.372377685546875 1.053 Q 7.372377685546875 1.0755 7.364127685546875 1.09425 Q 7.355877685546875 1.113 7.343877685546875 1.1205 Q 7.282377685546875 1.1625 7.196877685546875 1.1625 M 6.637377685546875 0.627 Q 6.803877685546875 0.5549999999999999 6.929877685546875 0.45149999999999996 Q 7.055877685546875 0.348 7.129377685546875 0.1785 Q 7.153377685546875 0.126 7.153377685546875 0.08699999999999997 Q 7.153377685546875 0.055499999999999994 7.133877685546875 0.03749999999999998 Q 7.123377685546875 0.02399999999999991 7.099377685546875 0.02399999999999991 Q 7.049877685546875 0.02399999999999991 6.997377685546875 0.058499999999999996 Q 6.952377685546875 0.09149999999999991 6.912627685546875 0.14549999999999996 Q 6.872877685546875 0.1995 6.838377685546875 0.25949999999999995 Q 6.803877685546875 0.3195 6.777627685546875 0.3727499999999999 Q 6.751377685546875 0.426 6.733377685546875 0.45749999999999996 Q 6.721377685546875 0.4815 6.696627685546875 0.528 Q 6.671877685546875 0.5745 6.637377685546875 0.627 M 7.346835205078125 0.39449999999999996 Q 7.327335205078125 0.39449999999999996 7.306335205078125 0.39074999999999993 Q 7.285335205078125 0.387 7.285335205078125 0.363 Q 7.285335205078125 0.35849999999999993 7.305585205078125 0.34199999999999997 Q 7.325835205078125 0.3255 7.347585205078125 0.30825 Q 7.369335205078125 0.2909999999999999 7.373835205078125 0.2879999999999999 Q 7.399335205078125 0.267 7.405335205078125 0.267 Q 7.4128352050781245 0.267 7.405335205078125 0.2865 Q 7.397835205078125 0.30599999999999994 7.397835205078125 0.32099999999999995 Q 7.397835205078125 0.3285 7.388835205078125 0.3464999999999999 Q 7.379835205078125 0.36449999999999994 7.367835205078125 0.37949999999999995 Q 7.355835205078125 0.39449999999999996 7.346835205078125 0.39449999999999996 M 7.183335205078125 0.9315 Q 7.156335205078125 0.9315 7.134585205078125 0.9195 Q 7.112835205078125 0.9075 7.102335205078125 0.8744999999999999 Q 7.100835205078125 0.87 7.100085205078125 0.8654999999999999 Q 7.099335205078125 0.861 7.099335205078125 0.855 Q 7.099335205078125 0.825 7.112835205078125 0.78 Q 7.126335205078125 0.735 7.145835205078125 0.693 Q 7.136835205078125 0.705 7.124835205078125 0.72225 Q 7.112835205078125 0.7395 7.090335205078125 0.7665 Q 7.084335205078125 0.7725 7.076835205078125 0.7725 Q 7.066335205078125 0.7725 7.066335205078125 0.7605 Q 7.066335205078125 0.7515 7.072335205078125 0.7454999999999999 Q 7.111335205078125 0.696 7.142085205078125 0.657 Q 7.172835205078125 0.618 7.187835205078125 0.591 Q 7.187835205078125 0.5894999999999999 7.187085205078125 0.58875 Q 7.186335205078125 0.588 7.186335205078125 0.5865 Q 7.186335205078125 0.582 7.190835205078125 0.573 Q 7.202835205078125 0.5369999999999999 7.215585205078125 0.51225 Q 7.228335205078125 0.4875 7.243335205078125 0.4845 Q 7.246335205078125 0.4845 7.2493352050781255 0.48374999999999996 Q 7.252335205078125 0.483 7.255335205078125 0.483 Q 7.271835205078125 0.483 7.285335205078125 0.4905 Q 7.298835205078125 0.498 7.298835205078125 0.5129999999999999 Q 7.298835205078125 0.5265 7.289085205078125 0.546 Q 7.279335205078125 0.5654999999999999 7.264335205078125 0.594 Q 7.231335205078125 0.663 7.205085205078125 0.71925 Q 7.178835205078125 0.7755 7.175835205078125 0.8115 Q 7.174335205078125 0.8175 7.174335205078125 0.82275 Q 7.174335205078125 0.828 7.174335205078125 0.834 Q 7.174335205078125 0.894 7.213335205078125 0.894 Q 7.237335205078125 0.894 7.274835205078125 0.86775 Q 7.312335205078125 0.8415 7.351335205078125 0.80325 Q 7.3903352050781255 0.765 7.422585205078125 0.72975 Q 7.454835205078125 0.6945 7.466835205078125 0.6765 Q 7.471335205078125 0.6719999999999999 7.475835205078125 0.6719999999999999 Q 7.481835205078125 0.6719999999999999 7.485585205078125 0.6765 Q 7.489335205078125 0.6809999999999999 7.486335205078125 0.6885 Q 7.472835205078125 0.714 7.440585205078125 0.75225 Q 7.408335205078125 0.7905 7.368585205078125 0.82875 Q 7.328835205078125 0.867 7.291335205078125 0.894 Q 7.271835205078125 0.909 7.242585205078125 0.92025 Q 7.213335205078125 0.9315 7.183335205078125 0.9315 M 7.42335498046875 0.9359999999999999 Q 7.41135498046875 0.9359999999999999 7.41585498046875 0.9255 Q 7.42185498046875 0.915 7.43760498046875 0.87225 Q 7.45335498046875 0.8295 7.47360498046875 0.771 Q 7.49385498046875 0.7124999999999999 7.51335498046875 0.6585 Q 7.49835498046875 0.6809999999999999 7.48110498046875 0.702 Q 7.46385498046875 0.723 7.45185498046875 0.7364999999999999 Q 7.44735498046875 0.741 7.44585498046875 0.741 Q 7.44135498046875 0.741 7.44135498046875 0.732 Q 7.44135498046875 0.714 7.45035498046875 0.699 Q 7.48185498046875 0.6585 7.49835498046875 0.63525 Q 7.51485498046875 0.612 7.52610498046875 0.59325 Q 7.53735498046875 0.5745 7.54935498046875 0.5505 Q 7.55235498046875 0.534 7.56060498046875 0.51 Q 7.56885498046875 0.486 7.60035498046875 0.486 Q 7.64685498046875 0.486 7.64685498046875 0.5055 Q 7.64685498046875 0.5115 7.64385498046875 0.51825 Q 7.64085498046875 0.5249999999999999 7.63785498046875 0.5325 Q 7.61985498046875 0.573 7.59885498046875 0.6255 Q 7.57785498046875 0.6779999999999999 7.56060498046875 0.7244999999999999 Q 7.54335498046875 0.771 7.53435498046875 0.7965 Q 7.55085498046875 0.7755 7.58385498046875 0.73725 Q 7.61685498046875 0.699 7.65960498046875 0.65325 Q 7.70235498046875 0.6074999999999999 7.74810498046875 0.5662499999999999 Q 7.79385498046875 0.5249999999999999 7.83435498046875 0.498 Q 7.87485498046875 0.471 7.90335498046875 0.471 Q 7.93785498046875 0.471 7.93785498046875 0.51 Q 7.93785498046875 0.54 7.91385498046875 0.588 Q 7.90335498046875 0.6105 7.88535498046875 0.6487499999999999 Q 7.86735498046875 0.6869999999999999 7.85685498046875 0.7065 Q 7.88385498046875 0.6825 7.91835498046875 0.65325 Q 7.95285498046875 0.624 7.99110498046875 0.5985 Q 8.02935498046875 0.573 8.06235498046875 0.5609999999999999 Q 8.069854980468751 0.558 8.09235498046875 0.55125 Q 8.114854980468749 0.5445 8.13135498046875 0.5445 Q 8.15385498046875 0.5445 8.15385498046875 0.5595 Q 8.15385498046875 0.57 8.14335498046875 0.582 Q 8.11785498046875 0.621 8.09760498046875 0.6652499999999999 Q 8.07735498046875 0.7095 8.06535498046875 0.7484999999999999 Q 8.05335498046875 0.7875 8.05035498046875 0.8115 Q 8.04885498046875 0.8175 8.04885498046875 0.82275 Q 8.04885498046875 0.828 8.04885498046875 0.834 Q 8.04885498046875 0.894 8.08785498046875 0.894 Q 8.11185498046875 0.894 8.14935498046875 0.86775 Q 8.18685498046875 0.8415 8.22585498046875 0.80325 Q 8.26485498046875 0.765 8.29710498046875 0.72975 Q 8.32935498046875 0.6945 8.34135498046875 0.6765 Q 8.34585498046875 0.6719999999999999 8.350354980468751 0.6719999999999999 Q 8.35635498046875 0.6719999999999999 8.36010498046875 0.6765 Q 8.36385498046875 0.6809999999999999 8.36085498046875 0.6885 Q 8.34735498046875 0.714 8.31510498046875 0.75225 Q 8.28285498046875 0.7905 8.24310498046875 0.82875 Q 8.20335498046875 0.867 8.16585498046875 0.894 Q 8.14635498046875 0.909 8.11710498046875 0.92025 Q 8.08785498046875 0.9315 8.05785498046875 0.9315 Q 8.03085498046875 0.9315 8.00910498046875 0.9195 Q 7.98735498046875 0.9075 7.97685498046875 0.8744999999999999 Q 7.97235498046875 0.861 7.97235498046875 0.84 Q 7.97235498046875 0.8069999999999999 7.98135498046875 0.765 Q 7.99035498046875 0.723 8.00085498046875 0.6945 Q 8.00835498046875 0.6735 8.021104980468749 0.64725 Q 8.03385498046875 0.621 8.04435498046875 0.603 Q 7.99785498046875 0.621 7.95435498046875 0.657 Q 7.91085498046875 0.693 7.87560498046875 0.72975 Q 7.84035498046875 0.7665 7.81635498046875 0.7905 Q 7.81035498046875 0.8069999999999999 7.79310498046875 0.8175 Q 7.7758549804687505 0.828 7.76085498046875 0.828 Q 7.73835498046875 0.828 7.73835498046875 0.8085 Q 7.73835498046875 0.8009999999999999 7.74285498046875 0.7905 Q 7.75785498046875 0.7545 7.77660498046875 0.7162499999999999 Q 7.79535498046875 0.6779999999999999 7.81110498046875 0.6465 Q 7.82685498046875 0.615 7.83285498046875 0.603 Q 7.84485498046875 0.582 7.84485498046875 0.57 Q 7.84485498046875 0.558 7.83435498046875 0.558 Q 7.82385498046875 0.558 7.79985498046875 0.5714999999999999 Q 7.7758549804687505 0.585 7.73685498046875 0.6194999999999999 Q 7.70535498046875 0.6479999999999999 7.66785498046875 0.69375 Q 7.63035498046875 0.7395 7.59585498046875 0.7875 Q 7.56135498046875 0.8355 7.53510498046875 0.87 Q 7.50885498046875 0.9045 7.49835498046875 0.9105 Q 7.48935498046875 0.915 7.46310498046875 0.9255 Q 7.43685498046875 0.9359999999999999 7.42335498046875 0.9359999999999999 M 8.44036669921875 0.9329999999999999 Q 8.39836669921875 0.9329999999999999 8.36686669921875 0.9135 Q 8.31436669921875 0.882 8.31436669921875 0.7995 Q 8.31436669921875 0.765 8.32636669921875 0.72 Q 8.33686669921875 0.6825 8.36386669921875 0.63825 Q 8.39086669921875 0.594 8.42761669921875 0.5535 Q 8.46436669921875 0.5129999999999999 8.50786669921875 0.4875 Q 8.55136669921875 0.46199999999999997 8.59486669921875 0.46199999999999997 Q 8.61286669921875 0.46199999999999997 8.62636669921875 0.46649999999999997 Q 8.64436669921875 0.4725 8.65711669921875 0.48824999999999996 Q 8.66986669921875 0.504 8.66986669921875 0.528 Q 8.66986669921875 0.5535 8.65711669921875 0.5565 Q 8.64436669921875 0.5595 8.64436669921875 0.5505 Q 8.64436669921875 0.5475 8.64511669921875 0.5445 Q 8.64586669921875 0.5415 8.64586669921875 0.54 Q 8.64586669921875 0.528 8.63911669921875 0.51825 Q 8.63236669921875 0.5085 8.61436669921875 0.5085 Q 8.59036669921875 0.5085 8.55511669921875 0.534 Q 8.51986669921875 0.5595 8.48311669921875 0.60225 Q 8.44636669921875 0.645 8.41861669921875 0.696 Q 8.39086669921875 0.747 8.38186669921875 0.7979999999999999 Q 8.38036669921875 0.8055 8.37961669921875 0.81225 Q 8.37886669921875 0.819 8.37886669921875 0.8265 Q 8.37886669921875 0.861 8.39461669921875 0.88425 Q 8.41036669921875 0.9075 8.44486669921875 0.9075 Q 8.48686669921875 0.9075 8.52586669921875 0.87525 Q 8.56486669921875 0.843 8.59561669921875 0.7979999999999999 Q 8.62636669921875 0.753 8.64136669921875 0.7184999999999999 Q 8.65336669921875 0.6915 8.65786669921875 0.6719999999999999 Q 8.662366699218751 0.6525 8.662366699218751 0.639 Q 8.662366699218751 0.627 8.66011669921875 0.618 Q 8.65786669921875 0.609 8.65486669921875 0.603 Q 8.65186669921875 0.594 8.65186669921875 0.5894999999999999 Q 8.65186669921875 0.5774999999999999 8.66161669921875 0.57 Q 8.67136669921875 0.5625 8.68186669921875 0.5625 Q 8.69086669921875 0.5625 8.70136669921875 0.5685 Q 8.71336669921875 0.5714999999999999 8.73436669921875 0.573 Q 8.75536669921875 0.5745 8.77936669921875 0.5745 Q 8.80486669921875 0.5745 8.83111669921875 0.573 Q 8.85736669921875 0.5714999999999999 8.87686669921875 0.567 Q 8.87986669921875 0.5654999999999999 8.88586669921875 0.5654999999999999 Q 8.89636669921875 0.5654999999999999 8.89636669921875 0.5714999999999999 Q 8.89636669921875 0.5774999999999999 8.88586669921875 0.582 Q 8.83336669921875 0.606 8.79211669921875 0.6074999999999999 Q 8.75086669921875 0.609 8.72086669921875 0.609 Q 8.72386669921875 0.6465 8.70436669921875 0.6892499999999999 Q 8.68486669921875 0.732 8.66386669921875 0.765 Q 8.63836669921875 0.8025 8.60536669921875 0.8415 Q 8.57236669921875 0.8805 8.53186669921875 0.90675 Q 8.49136669921875 0.9329999999999999 8.44036669921875 0.9329999999999999 M 9.250386474609375 0.9315 Q 9.223386474609375 0.9315 9.202386474609375 0.9195 Q 9.181386474609376 0.9075 9.170886474609375 0.8744999999999999 Q 9.169386474609375 0.867 9.167136474609375 0.85725 Q 9.164886474609375 0.8474999999999999 9.164886474609375 0.837 Q 9.164886474609375 0.8009999999999999 9.174636474609375 0.756 Q 9.184386474609376 0.711 9.196386474609374 0.6809999999999999 Q 9.190386474609374 0.6855 9.175386474609375 0.711 Q 9.160386474609375 0.7364999999999999 9.137886474609376 0.77025 Q 9.115386474609375 0.8039999999999999 9.087636474609376 0.83775 Q 9.059886474609375 0.8714999999999999 9.027636474609375 0.89325 Q 8.995386474609376 0.915 8.959386474609374 0.915 Q 8.935386474609375 0.915 8.901636474609376 0.9015 Q 8.867886474609374 0.888 8.852886474609376 0.864 Q 8.837886474609375 0.84 8.837886474609375 0.8039999999999999 Q 8.837886474609375 0.7605 8.857386474609376 0.70875 Q 8.876886474609375 0.657 8.906886474609376 0.612 Q 8.917386474609375 0.597 8.930886474609375 0.576 Q 8.944386474609376 0.5549999999999999 8.957886474609374 0.53925 Q 8.971386474609375 0.5235 8.977386474609375 0.522 Q 8.995386474609376 0.516 9.019386474609375 0.516 Q 9.044886474609376 0.516 9.056886474609374 0.522 Q 9.067386474609375 0.5265 9.067386474609375 0.5325 Q 9.067386474609375 0.54 9.055386474609374 0.552 Q 9.038886474609376 0.567 9.010386474609374 0.597 Q 8.981886474609375 0.627 8.954136474609374 0.669 Q 8.926386474609375 0.711 8.908386474609374 0.762 Q 8.893386474609375 0.8025 8.893386474609375 0.8325 Q 8.893386474609375 0.885 8.935386474609375 0.885 Q 8.971386474609375 0.885 9.011886474609375 0.855 Q 9.052386474609374 0.825 9.090636474609376 0.7815 Q 9.128886474609375 0.738 9.159636474609375 0.6952499999999999 Q 9.190386474609374 0.6525 9.206886474609375 0.627 Q 9.221886474609375 0.606 9.240636474609374 0.573 Q 9.259386474609375 0.54 9.277386474609376 0.5085 Q 9.295386474609375 0.477 9.305886474609375 0.46199999999999997 Q 9.316386474609375 0.46199999999999997 9.338136474609374 0.46575 Q 9.359886474609375 0.4695 9.375636474609376 0.4785 Q 9.391386474609375 0.4875 9.383886474609374 0.5009999999999999 Q 9.374886474609376 0.516 9.356136474609375 0.5475 Q 9.337386474609374 0.579 9.318636474609375 0.61125 Q 9.299886474609375 0.6435 9.289386474609374 0.663 Q 9.253386474609375 0.732 9.242886474609374 0.8115 Q 9.241386474609374 0.8175 9.241386474609374 0.82275 Q 9.241386474609374 0.828 9.241386474609374 0.834 Q 9.241386474609374 0.894 9.281886474609376 0.894 Q 9.304386474609375 0.894 9.341886474609375 0.867 Q 9.379386474609374 0.84 9.419136474609376 0.8025 Q 9.458886474609375 0.765 9.491136474609375 0.72975 Q 9.523386474609374 0.6945 9.535386474609375 0.6765 Q 9.538386474609375 0.6719999999999999 9.544386474609375 0.6719999999999999 Q 9.550386474609375 0.6719999999999999 9.554136474609376 0.6765 Q 9.557886474609376 0.6809999999999999 9.553386474609376 0.6885 Q 9.539886474609375 0.714 9.507636474609376 0.75225 Q 9.475386474609374 0.7905 9.436386474609375 0.82875 Q 9.397386474609375 0.867 9.359886474609375 0.894 Q 9.340386474609375 0.909 9.310386474609375 0.92025 Q 9.280386474609376 0.9315 9.250386474609375 0.9315 M 9.532341064453124 0.9914999999999999 Q 9.515841064453125 0.9914999999999999 9.499341064453125 0.987 Q 9.482841064453124 0.9824999999999999 9.475341064453126 0.969 Q 9.469341064453126 0.957 9.476841064453126 0.93975 Q 9.484341064453124 0.9225 9.497841064453125 0.909 Q 9.509841064453125 0.897 9.528591064453124 0.885 Q 9.547341064453125 0.873 9.568341064453126 0.8654999999999999 L 9.571341064453126 0.8654999999999999 Q 9.578841064453124 0.8654999999999999 9.578841064453124 0.87075 Q 9.578841064453124 0.876 9.572841064453126 0.8805 Q 9.545841064453125 0.894 9.530841064453124 0.9135 Q 9.520341064453126 0.9255 9.520341064453126 0.939 Q 9.520341064453126 0.963 9.548841064453125 0.963 Q 9.580341064453124 0.963 9.617091064453126 0.94425 Q 9.653841064453125 0.9255 9.687591064453125 0.8947499999999999 Q 9.721341064453124 0.864 9.742341064453125 0.8295 Q 9.763341064453124 0.7949999999999999 9.763341064453124 0.7635 Q 9.763341064453124 0.7424999999999999 9.740841064453125 0.72525 Q 9.718341064453124 0.708 9.691341064453125 0.69375 Q 9.664341064453126 0.6795 9.650841064453125 0.6705 Q 9.634341064453125 0.6585 9.620841064453124 0.64575 Q 9.607341064453125 0.633 9.599841064453125 0.618 Q 9.587841064453125 0.639 9.569091064453126 0.66825 Q 9.550341064453125 0.6975 9.524841064453126 0.729 Q 9.515841064453125 0.738 9.506841064453125 0.738 Q 9.497841064453125 0.738 9.497841064453125 0.7304999999999999 Q 9.497841064453125 0.726 9.505341064453125 0.7155 Q 9.545841064453125 0.6675 9.565341064453126 0.627 Q 9.584841064453125 0.5865 9.592341064453125 0.5654999999999999 Q 9.598341064453125 0.522 9.632841064453125 0.483 Q 9.667341064453124 0.44399999999999995 9.716841064453124 0.41474999999999995 Q 9.766341064453124 0.38549999999999995 9.818091064453125 0.369 Q 9.869841064453125 0.3524999999999999 9.910341064453124 0.3524999999999999 Q 9.950841064453124 0.3524999999999999 9.982341064453125 0.36749999999999994 Q 10.013841064453125 0.38249999999999995 10.013841064453125 0.4155 Q 10.013841064453125 0.4335 10.003341064453124 0.45449999999999996 Q 9.989841064453126 0.483 9.958341064453125 0.5055 Q 9.956841064453124 0.5069999999999999 9.953841064453124 0.5069999999999999 Q 9.941841064453126 0.5069999999999999 9.941841064453126 0.4965 Q 9.941841064453126 0.489 9.949341064453124 0.4815 Q 9.961341064453125 0.471 9.968841064453125 0.45599999999999996 Q 9.976341064453125 0.44099999999999995 9.976341064453125 0.4275 Q 9.976341064453125 0.40049999999999997 9.944841064453126 0.40049999999999997 Q 9.922341064453125 0.40049999999999997 9.892341064453126 0.40874999999999995 Q 9.862341064453124 0.417 9.834591064453125 0.42824999999999996 Q 9.806841064453126 0.43949999999999995 9.788841064453125 0.44849999999999995 Q 9.751341064453126 0.46649999999999997 9.719841064453124 0.49274999999999997 Q 9.688341064453125 0.5189999999999999 9.659841064453126 0.558 Q 9.640341064453125 0.5834999999999999 9.640341064453125 0.606 Q 9.640341064453125 0.633 9.676341064453124 0.6555 Q 9.713841064453124 0.6765 9.750591064453126 0.696 Q 9.787341064453125 0.7155 9.812841064453124 0.738 Q 9.838341064453125 0.7605 9.838341064453125 0.792 Q 9.838341064453125 0.8265 9.794841064453125 0.8744999999999999 Q 9.767841064453124 0.9045 9.722091064453124 0.9315 Q 9.676341064453124 0.9585 9.625341064453124 0.975 Q 9.574341064453124 0.9914999999999999 9.532341064453124 0.9914999999999999 M 10.196871826171876 0.39449999999999996 Q 10.177371826171875 0.39449999999999996 10.156371826171876 0.39074999999999993 Q 10.135371826171875 0.387 10.135371826171875 0.363 Q 10.135371826171875 0.35849999999999993 10.155621826171876 0.34199999999999997 Q 10.175871826171875 0.3255 10.197621826171876 0.30825 Q 10.219371826171875 0.2909999999999999 10.223871826171875 0.2879999999999999 Q 10.249371826171876 0.267 10.255371826171874 0.267 Q 10.262871826171875 0.267 10.255371826171874 0.2865 Q 10.247871826171876 0.30599999999999994 10.247871826171876 0.32099999999999995 Q 10.247871826171876 0.3285 10.238871826171875 0.3464999999999999 Q 10.229871826171875 0.36449999999999994 10.217871826171875 0.37949999999999995 Q 10.205871826171874 0.39449999999999996 10.196871826171876 0.39449999999999996 M 10.033371826171875 0.9315 Q 10.006371826171875 0.9315 9.984621826171875 0.9195 Q 9.962871826171876 0.9075 9.952371826171875 0.8744999999999999 Q 9.950871826171875 0.87 9.950121826171875 0.8654999999999999 Q 9.949371826171875 0.861 9.949371826171875 0.855 Q 9.949371826171875 0.825 9.962871826171876 0.78 Q 9.976371826171874 0.735 9.995871826171875 0.693 Q 9.986871826171875 0.705 9.974871826171874 0.72225 Q 9.962871826171876 0.7395 9.940371826171875 0.7665 Q 9.934371826171875 0.7725 9.926871826171874 0.7725 Q 9.916371826171876 0.7725 9.916371826171876 0.7605 Q 9.916371826171876 0.7515 9.922371826171876 0.7454999999999999 Q 9.961371826171876 0.696 9.992121826171875 0.657 Q 10.022871826171874 0.618 10.037871826171875 0.591 Q 10.037871826171875 0.5894999999999999 10.037121826171875 0.58875 Q 10.036371826171875 0.588 10.036371826171875 0.5865 Q 10.036371826171875 0.582 10.040871826171875 0.573 Q 10.052871826171875 0.5369999999999999 10.065621826171874 0.51225 Q 10.078371826171875 0.4875 10.093371826171875 0.4845 Q 10.096371826171875 0.4845 10.099371826171875 0.48374999999999996 Q 10.102371826171876 0.483 10.105371826171876 0.483 Q 10.121871826171875 0.483 10.135371826171875 0.4905 Q 10.148871826171876 0.498 10.148871826171876 0.5129999999999999 Q 10.148871826171876 0.5265 10.139121826171875 0.546 Q 10.129371826171875 0.5654999999999999 10.114371826171874 0.594 Q 10.081371826171875 0.663 10.055121826171876 0.71925 Q 10.028871826171875 0.7755 10.025871826171874 0.8115 Q 10.024371826171874 0.8175 10.024371826171874 0.82275 Q 10.024371826171874 0.828 10.024371826171874 0.834 Q 10.024371826171874 0.894 10.063371826171876 0.894 Q 10.087371826171875 0.894 10.124871826171875 0.86775 Q 10.162371826171874 0.8415 10.201371826171876 0.80325 Q 10.240371826171875 0.765 10.272621826171875 0.72975 Q 10.304871826171874 0.6945 10.316871826171875 0.6765 Q 10.321371826171875 0.6719999999999999 10.325871826171875 0.6719999999999999 Q 10.331871826171875 0.6719999999999999 10.335621826171876 0.6765 Q 10.339371826171876 0.6809999999999999 10.336371826171876 0.6885 Q 10.322871826171875 0.714 10.290621826171876 0.75225 Q 10.258371826171874 0.7905 10.218621826171875 0.82875 Q 10.178871826171875 0.867 10.141371826171875 0.894 Q 10.121871826171875 0.909 10.092621826171875 0.92025 Q 10.063371826171876 0.9315 10.033371826171875 0.9315 M 10.2358916015625 0.9359999999999999 Q 10.2253916015625 0.9359999999999999 10.2298916015625 0.9255 Q 10.2343916015625 0.9165 10.2463916015625 0.88425 Q 10.2583916015625 0.852 10.2741416015625 0.8069999999999999 Q 10.2898916015625 0.762 10.3063916015625 0.714 Q 10.3228916015625 0.6659999999999999 10.3371416015625 0.624 Q 10.3513916015625 0.582 10.3603916015625 0.558 Q 10.3633916015625 0.5489999999999999 10.3663916015625 0.53175 Q 10.3693916015625 0.5145 10.3791416015625 0.50025 Q 10.3888916015625 0.486 10.4128916015625 0.486 Q 10.4578916015625 0.486 10.4578916015625 0.5069999999999999 Q 10.4578916015625 0.5145 10.4503916015625 0.5325 Q 10.4323916015625 0.573 10.4113916015625 0.6255 Q 10.3903916015625 0.6779999999999999 10.3738916015625 0.7244999999999999 Q 10.3573916015625 0.771 10.3483916015625 0.7965 Q 10.3633916015625 0.7755 10.3971416015625 0.7364999999999999 Q 10.4308916015625 0.6975 10.4728916015625 0.6525 Q 10.5148916015625 0.6074999999999999 10.5606416015625 0.5654999999999999 Q 10.6063916015625 0.5235 10.6461416015625 0.49724999999999997 Q 10.6858916015625 0.471 10.7143916015625 0.471 Q 10.7503916015625 0.471 10.7503916015625 0.51 Q 10.7503916015625 0.5235 10.7428916015625 0.5505 Q 10.7293916015625 0.588 10.7083916015625 0.62325 Q 10.6873916015625 0.6585 10.6708916015625 0.6975 Q 10.6423916015625 0.768 10.637891601562501 0.8115 Q 10.6363916015625 0.8175 10.6363916015625 0.82275 Q 10.6363916015625 0.828 10.6363916015625 0.834 Q 10.6363916015625 0.894 10.6768916015625 0.894 Q 10.6993916015625 0.894 10.7368916015625 0.867 Q 10.7743916015625 0.84 10.8141416015625 0.8025 Q 10.8538916015625 0.765 10.8853916015625 0.72975 Q 10.9168916015625 0.6945 10.9288916015625 0.6765 Q 10.9333916015625 0.6719999999999999 10.9378916015625 0.6719999999999999 Q 10.9438916015625 0.6719999999999999 10.9476416015625 0.6765 Q 10.9513916015625 0.6809999999999999 10.9483916015625 0.6885 Q 10.9348916015625 0.714 10.9026416015625 0.75225 Q 10.8703916015625 0.7905 10.8313916015625 0.82875 Q 10.7923916015625 0.867 10.7548916015625 0.894 Q 10.7323916015625 0.909 10.6993916015625 0.9209999999999999 Q 10.6663916015625 0.9329999999999999 10.6333916015625 0.9315 Q 10.5913916015625 0.9269999999999999 10.5733916015625 0.90225 Q 10.5553916015625 0.8775 10.5553916015625 0.843 Q 10.5553916015625 0.8025 10.5711416015625 0.75675 Q 10.5868916015625 0.711 10.6063916015625 0.6705 Q 10.6258916015625 0.6299999999999999 10.637891601562501 0.609 Q 10.6498916015625 0.585 10.6498916015625 0.5714999999999999 Q 10.6498916015625 0.5595 10.6393916015625 0.5595 Q 10.6288916015625 0.5595 10.6078916015625 0.573 Q 10.5868916015625 0.5865 10.5508916015625 0.6194999999999999 Q 10.5178916015625 0.6479999999999999 10.4803916015625 0.69375 Q 10.4428916015625 0.7395 10.4076416015625 0.7875 Q 10.3723916015625 0.8355 10.3461416015625 0.87 Q 10.3198916015625 0.9045 10.3093916015625 0.9105 Q 10.3018916015625 0.915 10.2756416015625 0.9255 Q 10.2493916015625 0.9359999999999999 10.2358916015625 0.9359999999999999" fill="#404040" fill-rule="nonzero"></path></g><g></g></g><defs><clipPath id="SvgjsClipPath3692"><path d=" M -2.322466618695888 -0.5029833093479441 h 1.922466618695888 v 1.922466618695888 h -1.922466618695888 Z"></path></clipPath><clipPath id="SvgjsClipPath369036c2ed8a-6dd8-468a-9912-5c00bf11906a"><path d=" M -2.322466618695888 -0.5029833093479441 L -0.40000000000000013 -0.5029833093479441 L -0.40000000000000013 1.419483309347944 L -2.322466618695888 1.419483309347944 Z"></path></clipPath></defs></svg>